HIERARCHY
ROOT mixamorig:Hips
{
	OFFSET -0.000007 99.791939 0.000048
	CHANNELS 6 Xposition Yposition Zposition Xrotation Yrotation Zrotation
	JOINT mixamorig:Spine
	{
		OFFSET -0.000008 9.923462 -1.227335
		CHANNELS 3 Xrotation Yrotation Zrotation
		JOINT mixamorig:Spine1
		{
			OFFSET -0.001162 11.645439 -1.422341
			CHANNELS 3 Xrotation Yrotation Zrotation
			JOINT mixamorig:Spine2
			{
				OFFSET -0.001082 13.360199 -1.626459
				CHANNELS 3 Xrotation Yrotation Zrotation
				JOINT mixamorig:Neck
				{
					OFFSET -0.001294 15.032486 0.792904
					CHANNELS 3 Xrotation Yrotation Zrotation
					JOINT mixamorig:Head
					{
						OFFSET -0.000902 10.321838 3.142429
						CHANNELS 3 Xrotation Yrotation Zrotation
						JOINT mixamorig:HeadTop_End
						{
							OFFSET -0.001464 18.474670 6.636400
							CHANNELS 3 Xrotation Yrotation Zrotation
							End Site
							{
								OFFSET -0.001724 19.630463 0.000000
							}
						}
					}
				}
				JOINT mixamorig:LeftShoulder
				{
					OFFSET 6.105025 9.110947 0.705547
					CHANNELS 3 Xrotation Yrotation Zrotation
					JOINT mixamorig:LeftArm
					{
						OFFSET 12.655060 -0.264816 -2.600928
						CHANNELS 3 Xrotation Yrotation Zrotation
						JOINT mixamorig:LeftForeArm
						{
							OFFSET 27.404680 0.002457 -0.000007
							CHANNELS 3 Xrotation Yrotation Zrotation
							JOINT mixamorig:LeftHand
							{
								OFFSET 27.614456 0.002457 0.000007
								CHANNELS 3 Xrotation Yrotation Zrotation
								JOINT mixamorig:LeftHandThumb1
								{
									OFFSET 3.789009 -2.166824 3.002973
									CHANNELS 3 Xrotation Yrotation Zrotation
									JOINT mixamorig:LeftHandThumb2
									{
										OFFSET 3.675636 -2.121704 2.122010
										CHANNELS 3 Xrotation Yrotation Zrotation
										JOINT mixamorig:LeftHandThumb3
										{
											OFFSET 3.394531 -1.959473 1.959746
											CHANNELS 3 Xrotation Yrotation Zrotation
											JOINT mixamorig:LeftHandThumb4
											{
												OFFSET 2.679504 -1.546753 1.546951
												CHANNELS 3 Xrotation Yrotation Zrotation
												End Site
												{
													OFFSET 2.400604 -1.530380 1.964751
												}
											}
										}
									}
								}
								JOINT mixamorig:LeftHandIndex1
								{
									OFFSET 12.266647 -0.230743 2.822040
									CHANNELS 3 Xrotation Yrotation Zrotation
									JOINT mixamorig:LeftHandIndex2
									{
										OFFSET 3.891968 0.000336 0.000037
										CHANNELS 3 Xrotation Yrotation Zrotation
										JOINT mixamorig:LeftHandIndex3
										{
											OFFSET 3.415161 0.000305 -0.000010
											CHANNELS 3 Xrotation Yrotation Zrotation
											JOINT mixamorig:LeftHandIndex4
											{
												OFFSET 3.077995 0.000275 -0.000009
												CHANNELS 3 Xrotation Yrotation Zrotation
												End Site
												{
													OFFSET 3.077988 0.000259 0.000131
												}
											}
										}
									}
								}
								JOINT mixamorig:LeftHandMiddle1
								{
									OFFSET 12.775536 0.001129 0.000014
									CHANNELS 3 Xrotation Yrotation Zrotation
									JOINT mixamorig:LeftHandMiddle2
									{
										OFFSET 3.613968 0.000320 0.000000
										CHANNELS 3 Xrotation Yrotation Zrotation
										JOINT mixamorig:LeftHandMiddle3
										{
											OFFSET 3.459763 0.000305 -0.000028
											CHANNELS 3 Xrotation Yrotation Zrotation
											JOINT mixamorig:LeftHandMiddle4
											{
												OFFSET 3.680191 0.000320 0.000031
												CHANNELS 3 Xrotation Yrotation Zrotation
												End Site
												{
													OFFSET 3.680191 0.000351 -0.004814
												}
											}
										}
									}
								}
								JOINT mixamorig:LeftHandRing1
								{
									OFFSET 12.147018 0.011063 -2.216636
									CHANNELS 3 Xrotation Yrotation Zrotation
									JOINT mixamorig:LeftHandRing2
									{
										OFFSET 3.601181 0.000320 0.000033
										CHANNELS 3 Xrotation Yrotation Zrotation
										JOINT mixamorig:LeftHandRing3
										{
											OFFSET 3.307320 0.000305 -0.000023
											CHANNELS 3 Xrotation Yrotation Zrotation
											JOINT mixamorig:LeftHandRing4
											{
												OFFSET 3.660118 0.000320 0.000000
												CHANNELS 3 Xrotation Yrotation Zrotation
												End Site
												{
													OFFSET 3.660103 0.000229 0.005616
												}
											}
										}
									}
								}
								JOINT mixamorig:LeftHandPinky1
								{
									OFFSET 10.908218 -0.225174 -4.725837
									CHANNELS 3 Xrotation Yrotation Zrotation
									JOINT mixamorig:LeftHandPinky2
									{
										OFFSET 4.136658 0.000351 0.001166
										CHANNELS 3 Xrotation Yrotation Zrotation
										JOINT mixamorig:LeftHandPinky3
										{
											OFFSET 2.594826 0.000244 -0.001180
											CHANNELS 3 Xrotation Yrotation Zrotation
											JOINT mixamorig:LeftHandPinky4
											{
												OFFSET 2.923874 0.000244 0.000018
												CHANNELS 3 Xrotation Yrotation Zrotation
												End Site
												{
													OFFSET 2.923851 0.000275 -0.003346
												}
											}
										}
									}
								}
							}
						}
					}
				}
				JOINT mixamorig:RightShoulder
				{
					OFFSET -6.106495 9.109970 0.705565
					CHANNELS 3 Xrotation Yrotation Zrotation
					JOINT mixamorig:RightArm
					{
						OFFSET -12.655020 -0.267136 -2.600890
						CHANNELS 3 Xrotation Yrotation Zrotation
						JOINT mixamorig:RightForeArm
						{
							OFFSET -27.404675 -0.002365 0.000019
							CHANNELS 3 Xrotation Yrotation Zrotation
							JOINT mixamorig:RightHand
							{
								OFFSET -27.614464 -0.002396 0.000031
								CHANNELS 3 Xrotation Yrotation Zrotation
								JOINT mixamorig:RightHandThumb1
								{
									OFFSET -3.788620 -2.167480 3.002977
									CHANNELS 3 Xrotation Yrotation Zrotation
									JOINT mixamorig:RightHandThumb2
									{
										OFFSET -3.675247 -2.122314 2.122009
										CHANNELS 3 Xrotation Yrotation Zrotation
										JOINT mixamorig:RightHandThumb3
										{
											OFFSET -3.394188 -1.960129 1.959755
											CHANNELS 3 Xrotation Yrotation Zrotation
											JOINT mixamorig:RightHandThumb4
											{
												OFFSET -2.679230 -1.547195 1.546953
												CHANNELS 3 Xrotation Yrotation Zrotation
												End Site
												{
													OFFSET -2.398781 -1.531693 1.965949
												}
											}
										}
									}
								}
								JOINT mixamorig:RightHandIndex1
								{
									OFFSET -12.266594 -0.232895 2.822051
									CHANNELS 3 Xrotation Yrotation Zrotation
									JOINT mixamorig:RightHandIndex2
									{
										OFFSET -3.891968 -0.000336 0.000040
										CHANNELS 3 Xrotation Yrotation Zrotation
										JOINT mixamorig:RightHandIndex3
										{
											OFFSET -3.415161 -0.000305 -0.000006
											CHANNELS 3 Xrotation Yrotation Zrotation
											JOINT mixamorig:RightHandIndex4
											{
												OFFSET -3.077988 -0.000275 0.000006
												CHANNELS 3 Xrotation Yrotation Zrotation
												End Site
												{
													OFFSET -3.077980 0.000229 -0.008454
												}
											}
										}
									}
								}
								JOINT mixamorig:RightHandMiddle1
								{
									OFFSET -12.775528 -0.001114 0.000025
									CHANNELS 3 Xrotation Yrotation Zrotation
									JOINT mixamorig:RightHandMiddle2
									{
										OFFSET -3.613968 -0.000320 0.000005
										CHANNELS 3 Xrotation Yrotation Zrotation
										JOINT mixamorig:RightHandMiddle3
										{
											OFFSET -3.459763 -0.000305 -0.000025
											CHANNELS 3 Xrotation Yrotation Zrotation
											JOINT mixamorig:RightHandMiddle4
											{
												OFFSET -3.680191 -0.000320 0.000034
												CHANNELS 3 Xrotation Yrotation Zrotation
												End Site
												{
													OFFSET -3.680168 -0.000031 0.012581
												}
											}
										}
									}
								}
								JOINT mixamorig:RightHandRing1
								{
									OFFSET -12.147003 0.008942 -2.216624
									CHANNELS 3 Xrotation Yrotation Zrotation
									JOINT mixamorig:RightHandRing2
									{
										OFFSET -3.601196 -0.000320 0.000037
										CHANNELS 3 Xrotation Yrotation Zrotation
										JOINT mixamorig:RightHandRing3
										{
											OFFSET -3.307312 -0.000290 -0.000019
											CHANNELS 3 Xrotation Yrotation Zrotation
											JOINT mixamorig:RightHandRing4
											{
												OFFSET -3.660118 -0.000320 0.000002
												CHANNELS 3 Xrotation Yrotation Zrotation
												End Site
												{
													OFFSET -3.660110 0.000107 0.002180
												}
											}
										}
									}
								}
								JOINT mixamorig:RightHandPinky1
								{
									OFFSET -10.908173 -0.227081 -4.725826
									CHANNELS 3 Xrotation Yrotation Zrotation
									JOINT mixamorig:RightHandPinky2
									{
										OFFSET -4.136642 -0.000366 0.000029
										CHANNELS 3 Xrotation Yrotation Zrotation
										JOINT mixamorig:RightHandPinky3
										{
											OFFSET -2.594841 -0.000229 -0.000036
											CHANNELS 3 Xrotation Yrotation Zrotation
											JOINT mixamorig:RightHandPinky4
											{
												OFFSET -2.923874 -0.000259 0.000021
												CHANNELS 3 Xrotation Yrotation Zrotation
												End Site
												{
													OFFSET -2.923820 0.000336 -0.012876
												}
											}
										}
									}
								}
							}
						}
					}
				}
			}
		}
	}
	JOINT mixamorig:LeftUpLeg
	{
		OFFSET 9.124458 -6.656387 -0.055378
		CHANNELS 3 Xrotation Yrotation Zrotation
		JOINT mixamorig:LeftLeg
		{
			OFFSET 0.244681 -40.595421 -0.515619
			CHANNELS 3 Xrotation Yrotation Zrotation
			JOINT mixamorig:LeftFoot
			{
				OFFSET -0.244669 -42.047928 -2.059156
				CHANNELS 3 Xrotation Yrotation Zrotation
				JOINT mixamorig:LeftToeBase
				{
					OFFSET 0.373535 -7.208548 13.966561
					CHANNELS 3 Xrotation Yrotation Zrotation
					JOINT mixamorig:LeftToe_End
					{
						OFFSET -0.142059 -0.175224 9.997455
						CHANNELS 3 Xrotation Yrotation Zrotation
						End Site
						{
							OFFSET -0.142060 -0.175223 9.997459
						}
					}
				}
			}
		}
	}
	JOINT mixamorig:RightUpLeg
	{
		OFFSET -9.124448 -6.656403 -0.055378
		CHANNELS 3 Xrotation Yrotation Zrotation
		JOINT mixamorig:RightLeg
		{
			OFFSET -0.244680 -40.595459 -0.514290
			CHANNELS 3 Xrotation Yrotation Zrotation
			JOINT mixamorig:RightFoot
			{
				OFFSET 0.244670 -42.047859 -2.060535
				CHANNELS 3 Xrotation Yrotation Zrotation
				JOINT mixamorig:RightToeBase
				{
					OFFSET -0.373535 -7.208539 13.966558
					CHANNELS 3 Xrotation Yrotation Zrotation
					JOINT mixamorig:RightToe_End
					{
						OFFSET 0.141798 -0.175009 9.997463
						CHANNELS 3 Xrotation Yrotation Zrotation
						End Site
						{
							OFFSET 0.141798 -0.175009 9.997467
						}
					}
				}
			}
		}
	}
}
MOTION
Frames: 4
Frame Time: 0.033333
0.111025 79.715286 0.535745 7.469260 1.957647 -2.383983 1.519180 -1.668645 0.829518 4.463945 -2.897041 3.069445 4.470569 -2.960900 2.997955 -6.646416 2.329841 -0.789032 -22.799685 6.183953 9.466432 -0.000001 -0.000000 -0.000000 -0.863874 7.389832 -0.033216 -11.564833 10.382607 -66.343321 -0.010801 -115.180116 -0.017046 -72.995885 -11.315763 -18.458127 2.692333 20.233303 14.029655 2.245843 5.063063 -0.343885 -7.335880 -0.422372 13.147272 0.000000 0.000000 0.000003 5.768164 6.881728 -88.058712 5.424383 5.835573 -85.818042 5.523839 5.842685 -86.795585 0.000004 -0.000002 -0.000001 -0.018371 7.177021 -79.088147 3.594818 5.400473 -67.288189 4.336069 5.652750 -74.974201 -0.000002 -0.000000 -0.000002 0.351389 7.858140 -86.242285 3.057397 5.143162 -61.448097 7.456235 5.628306 -105.957934 -0.000002 0.000002 0.000000 -3.177268 8.752052 -83.423022 6.358113 5.813600 -95.240370 6.457202 5.846116 -95.957847 0.000001 0.000005 0.000001 0.518584 -7.917607 14.965882 -19.109075 0.821602 54.261919 0.010792 114.793883 -0.016849 -65.261296 9.921615 32.061892 2.276445 -18.433436 -12.204583 2.753617 -6.766185 -0.612927 -5.504295 -5.511401 -14.718521 0.000001 0.000002 0.000002 5.675412 -1.758400 87.252634 4.319091 -4.643949 85.826620 4.397953 -4.649494 86.799977 -0.000003 -0.000001 -0.000000 2.029502 -6.487344 78.554648 2.866764 -4.299520 67.363260 3.450853 -4.498139 74.966708 -0.000005 0.000001 -0.000001 -1.326354 -6.488044 85.540190 2.437391 -4.094225 61.507131 5.933609 -4.479175 105.923680 -0.000002 -0.000003 -0.000001 -13.484240 -6.859449 82.489404 5.081183 -4.637100 95.234946 5.139512 -4.632601 95.941912 -0.000001 -0.000002 0.000004 19.328974 17.244841 5.849161 24.355112 -4.958046 7.946599 -41.731141 -1.663351 -1.683310 -14.033167 -0.000038 -0.000008 0.000000 0.000001 0.000001 -62.286660 -2.194971 -1.079816 75.965371 -2.544053 -0.220588 -21.407374 3.194897 -4.029498 1.434635 -0.009823 0.914414 -0.000000 -0.000000 0.000000 
0.324969 84.157410 1.116359 7.046975 5.721782 -1.033405 2.290103 -2.014874 1.358563 3.101334 -3.162191 2.170167 3.093791 -3.180218 2.121974 -5.648884 2.001176 -1.392964 -18.373740 3.488747 8.412425 -0.000001 0.000000 0.000000 -0.473300 4.841661 -0.293514 -18.237114 6.124129 -64.202501 -0.012625 -111.964853 -0.018717 -70.529804 -11.074255 -17.677363 3.050137 20.084344 13.632510 2.281688 5.106196 -0.312884 -7.290285 -0.362465 13.201410 0.000001 -0.000003 0.000001 5.739401 6.805803 -86.406121 5.292095 5.824447 -84.515634 5.393592 5.833948 -85.515102 0.000002 -0.000001 -0.000001 0.062731 7.084617 -77.820587 3.516722 5.367279 -66.455616 4.264817 5.633213 -74.249334 -0.000002 0.000002 0.000005 0.429065 7.766459 -85.150951 3.011943 5.118240 -60.939644 7.349273 5.657647 -104.869960 -0.000000 -0.000000 -0.000000 -3.096647 8.581284 -82.477621 6.300795 5.818290 -94.676251 6.399112 5.851858 -95.385272 -0.000001 -0.000002 -0.000000 0.323725 -7.583629 12.784956 -22.730130 4.580635 55.001113 0.010860 114.547361 -0.016909 -66.006866 9.595127 29.266968 2.398409 -19.070119 -12.359533 2.764459 -6.757701 -0.629753 -5.366700 -5.803671 -14.863800 0.000001 0.000000 -0.000004 5.396385 -1.676641 84.205782 4.153130 -4.628914 83.773978 4.238945 -4.637903 84.836079 -0.000001 -0.000000 0.000002 2.177965 -6.430841 75.378541 2.733179 -4.241509 65.569536 3.317167 -4.460193 73.255200 -0.000004 -0.000004 0.000002 -0.871821 -6.187634 81.806419 2.289120 -4.010385 59.409498 5.709963 -4.536836 103.079118 -0.000001 0.000002 -0.000001 -12.579264 -6.520333 78.156926 4.833869 -4.653045 92.182514 4.886733 -4.651952 92.818958 0.000002 0.000002 -0.000001 15.406371 13.585629 4.627838 27.298045 -1.802289 10.261376 -25.935162 -1.398748 -2.372782 -32.265370 -0.000085 -0.000019 -0.000000 0.000001 0.000000 -55.747263 -2.076809 -3.579640 67.529411 -4.316486 -0.637715 -18.958717 3.135976 -4.464628 1.197757 -0.017260 1.206285 -0.000000 -0.000000 -0.000000 
0.646606 89.489120 1.288066 5.842207 9.139214 0.102268 4.117209 -1.809170 2.262692 2.043241 -3.016707 1.393113 2.008603 -2.990312 1.400450 -4.444633 1.613836 -2.278775 -14.208343 -0.008775 7.287545 -0.000000 -0.000000 -0.000001 0.066814 1.366597 -0.871654 -25.892591 -0.416603 -62.084268 -0.016552 -107.102052 -0.022408 -72.394657 -10.646512 -17.501376 3.069405 18.485507 12.898204 2.365932 5.207810 -0.239956 -7.182970 -0.221329 13.328750 0.000003 0.000003 -0.000001 5.171003 6.191048 -81.734893 4.995979 5.788497 -81.589294 5.094500 5.802839 -82.565000 -0.000000 -0.000002 -0.000004 -0.168005 6.725304 -74.235304 3.322880 5.278938 -64.366439 4.090067 5.581225 -72.460937 -0.000003 -0.000005 0.000001 0.308088 7.490394 -82.107500 2.850196 5.025280 -59.110178 7.009780 5.736561 -101.450555 0.000001 0.000004 0.000003 -3.085555 8.258290 -79.802489 6.021164 5.833084 -91.929196 6.117505 5.871437 -92.615808 -0.000002 -0.000000 -0.000000 0.210550 -6.001388 10.575742 -27.978611 7.616764 54.632716 0.011309 113.733865 -0.017312 -65.780760 9.886981 26.852465 1.973646 -18.339753 -12.343939 2.790042 -6.737916 -0.669283 -5.045273 -6.493191 -15.202966 0.000001 0.000002 0.000002 4.175187 0.028755 79.119081 3.866127 -4.588684 80.204289 3.965326 -4.605132 81.441864 -0.000000 0.000005 -0.000000 1.173352 -5.963919 70.353093 2.559010 -4.158251 63.191995 3.142587 -4.404083 70.996620 -0.000001 0.000000 0.000002 -0.847041 -5.788129 77.061077 2.123145 -3.907757 57.006699 5.376713 -4.601345 98.897430 -0.000001 0.000001 -0.000002 -11.665491 -5.793668 73.682763 4.519580 -4.654374 88.310699 4.565848 -4.656694 88.865652 0.000003 -0.000003 0.000002 7.028658 10.223740 3.892036 34.198853 4.149615 11.426007 3.594499 -1.709779 -3.647448 -54.352187 0.957102 -5.373048 0.000000 0.000002 0.000001 -47.115854 -2.306657 -5.089252 55.527512 -6.188442 -1.341005 -13.384314 2.997359 -4.996069 -0.522847 -0.003860 0.565915 -0.000000 -0.000000 0.000000 
0.856363 94.316116 1.010243 4.292905 12.203403 0.849614 5.810391 -1.353576 2.997926 1.948296 -2.661691 0.901827 1.895996 -2.618076 0.940930 -3.301942 1.147162 -3.041737 -10.647502 -3.917567 6.844241 0.000000 -0.000000 -0.000001 0.565839 -2.161845 -0.876360 -35.061168 -7.376552 -61.207968 -0.025466 -101.310605 -0.031079 -74.383082 -10.348763 -17.584358 3.401717 16.417316 11.805915 2.497904 5.367077 -0.126202 -7.015277 0.000191 13.527370 0.000006 0.000000 0.000009 4.484665 5.434404 -74.632774 4.582330 5.712354 -77.462862 4.677905 5.733391 -78.421015 -0.000006 0.000001 0.000000 -0.302619 6.227805 -68.804594 3.062896 5.146612 -61.505157 3.861308 5.504018 -70.092508 0.000000 -0.000002 0.000000 0.406292 7.131431 -77.482745 2.633125 4.889323 -56.598468 6.514585 5.814436 -96.531890 0.000001 -0.000002 0.000003 -2.733273 8.189452 -75.644898 5.620506 5.831022 -87.998170 5.708867 5.875754 -88.606425 0.000000 -0.000001 0.000001 0.207223 -3.944619 8.797290 -35.383160 9.947684 52.823170 0.012295 111.949287 -0.018230 -68.065615 9.894198 25.780658 1.600129 -15.997452 -12.009199 2.830076 -6.706959 -0.731230 -4.547526 -7.576001 -15.726686 -0.000000 -0.000005 0.000001 2.762792 2.612437 71.723011 3.447233 -4.496641 74.920038 3.567259 -4.527637 76.445321 -0.000003 -0.000001 0.000000 -0.165742 -5.096238 64.119125 2.327982 -4.033524 59.958597 2.914871 -4.319226 68.003440 -0.000004 0.000002 0.000001 -0.487801 -5.421722 71.000684 1.923330 -3.770837 54.024184 4.916113 -4.649958 93.190787 -0.000001 0.000001 -0.000001 -10.331459 -6.448196 68.441829 4.139626 -4.627623 83.618325 4.178185 -4.632964 84.080708 -0.000002 0.000001 -0.000001 2.740327 8.244273 3.853594 35.977410 2.579207 6.486295 27.017247 -0.886829 3.153230 -61.664819 10.310898 -14.429032 0.000001 -0.000000 -0.000000 -39.122101 -2.425010 -5.688006 43.184995 -9.624510 -2.349720 -2.950363 2.459767 -3.011907 -5.802564 -0.000043 0.000046 -0.000000 -0.000000 0.000000 
